<?xml version="1.0" encoding="UTF-8" standalone="no"?>
<svg
   height="51"
   viewBox="0 0 128 51"
   width="128"
   version="1.1"
   id="svg26"
   sodipodi:docname="logo.svg"
   inkscape:version="1.2.1 (ef4d3fba62, 2022-07-19, custom)"
   xmlns:inkscape="http://www.inkscape.org/namespaces/inkscape"
   xmlns:sodipodi="http://sodipodi.sourceforge.net/DTD/sodipodi-0.dtd"
   xmlns="http://www.w3.org/2000/svg"
   xmlns:svg="http://www.w3.org/2000/svg">
  <defs
     id="defs30" />
  <sodipodi:namedview
     id="namedview28"
     pagecolor="#ffffff"
     bordercolor="#666666"
     borderopacity="1.0"
     inkscape:showpageshadow="2"
     inkscape:pageopacity="0.0"
     inkscape:pagecheckerboard="0"
     inkscape:deskcolor="#d1d1d1"
     showgrid="false"
     inkscape:zoom="7.236796"
     inkscape:cx="54.582166"
     inkscape:cy="34.062035"
     inkscape:window-width="1312"
     inkscape:window-height="704"
     inkscape:window-x="0"
     inkscape:window-y="0"
     inkscape:window-maximized="1"
     inkscape:current-layer="svg26" />
  <rect
     fill="#f94f4f"
     height="39.108192"
     rx="10.045697"
     width="20.091393"
     id="rect18"
     x="88.804298"
     y="3.3036089"
     style="stroke-width:0.549627"
     ry="2.8559926" />
  <rect
     fill="#f94f4f"
     height="34.27375"
     rx="8.3862085"
     width="16.772415"
     id="rect18-6"
     x="59.907574"
     y="8.3340321"
     style="stroke-width:0.470119"
     ry="2.502943" />
  <rect
     fill="#f94f4f"
     height="29.929296"
     rx="11.281675"
     width="22.563349"
     id="rect18-6-7"
     x="16.116137"
     y="11.968368"
     style="stroke-width:0.509541"
     ry="2.1856763" />
  <g
     aria-label="Talik"
     id="text24"
     style="font-weight:800;font-size:30px;font-family:Nunito-ExtraBold, Nunito;fill:#ffffff"
     transform="translate(-0.68119753,3.3287996)">
    <path
       d="m 17.941141,12.666526 h 20.15625 v 4.262695 H 30.846415 V 34.536643 H 25.206766 V 16.929221 h -7.265625 z"
       style="fill:#ececec"
       id="path601" />
    <path
       d="m 50.642247,27.125585 q -1.640625,0 -2.475586,0.556641 -0.820313,0.556641 -0.820313,1.640625 0,0.996094 0.65918,1.567383 0.673828,0.55664 1.860351,0.55664 1.479493,0 2.490235,-1.054687 1.010742,-1.069336 1.010742,-2.666016 v -0.600586 z m 8.012695,-1.977539 v 9.360352 h -5.288086 v -2.431641 q -1.054687,1.494141 -2.373047,2.182617 -1.318359,0.673829 -3.208008,0.673829 -2.548828,0 -4.145507,-1.479493 -1.582032,-1.49414 -1.582032,-3.867187 0,-2.885742 1.977539,-4.233399 1.992188,-1.347656 6.240235,-1.347656 h 3.09082 v -0.410156 q 0,-1.245117 -0.981445,-1.816406 -0.981446,-0.585938 -3.061524,-0.585938 -1.68457,0 -3.134765,0.336914 -1.450196,0.336914 -2.695313,1.010742 v -3.999023 q 1.68457,-0.410156 3.383789,-0.615234 1.699219,-0.219727 3.398438,-0.219727 4.438476,0 6.401367,1.757813 1.977539,1.743164 1.977539,5.683593 z"
       style="fill:#f94f4f;fill-opacity:1"
       id="path603" />
    <path
       d="m 66.497757,11.330696 h 5.24414 v 22.792969 h -5.24414 z"
       style="fill:#ececec"
       id="path605" />
    <path
       d="m 80.458548,17.65711 h 5.24414 v 16.40625 h -5.24414 z m 0,-6.386719 h 5.24414 v 4.277344 h -5.24414 z"
       style="fill:#f94f4f;fill-opacity:1"
       id="path607" />
    <path
       d="m 90.664163,11.109322 h 5.244141 v 12.407227 l 6.035156,-6.020508 h 6.09375 l -8.0127,7.529297 8.64258,8.876953 h -6.35742 l -6.401366,-6.84082 v 6.84082 h -5.244141 z"
       style="fill:#ececec"
       id="path609" />
  </g>
</svg>
